<svg width="31" height="30" viewBox="0 0 31 30" fill="none" xmlns="http://www.w3.org/2000/svg">
<path d="M15.8049 0C9.54253 0 7.71103 0.00646033 7.35502 0.0359932C6.06987 0.142819 5.27017 0.345166 4.39895 0.778931C3.72754 1.11233 3.19802 1.4988 2.67542 2.04054C1.72368 3.02851 1.14687 4.24397 0.938063 5.68878C0.836544 6.39019 0.807012 6.53324 0.801013 10.1159C0.798706 11.3102 0.801013 12.8819 0.801013 14.99C0.801013 21.2473 0.807929 23.077 0.837923 23.4323C0.94175 24.6828 1.13788 25.4696 1.55318 26.3302C2.34688 27.9776 3.86275 29.2143 5.64857 29.6757C6.26691 29.8349 6.94986 29.9226 7.82662 29.9641C8.19809 29.9803 11.9843 29.9918 15.7728 29.9918C19.5613 29.9918 23.3499 29.9872 23.7121 29.9688C24.7273 29.921 25.3168 29.8419 25.9686 29.6734C27.7659 29.2097 29.2541 27.9914 30.064 26.321C30.4712 25.4811 30.6777 24.6644 30.7711 23.4791C30.7915 23.2207 30.8 19.1006 30.8 14.9861C30.8 10.8709 30.7908 6.75842 30.7705 6.50001C30.6759 5.29562 30.4694 4.48577 30.049 3.62978C29.704 2.92907 29.321 2.40578 28.765 1.87073C27.7726 0.922904 26.559 0.346089 25.1128 0.137513C24.4121 0.036224 24.2725 0.0062296 20.687 0L15.8049 0Z" fill="url(#paint0_radial_5_73)"/>
<path d="M15.8049 0C9.54253 0 7.71103 0.00646033 7.35502 0.0359932C6.06987 0.142819 5.27017 0.345166 4.39895 0.778931C3.72754 1.11233 3.19802 1.4988 2.67542 2.04054C1.72368 3.02851 1.14687 4.24397 0.938063 5.68878C0.836544 6.39019 0.807012 6.53324 0.801013 10.1159C0.798706 11.3102 0.801013 12.8819 0.801013 14.99C0.801013 21.2473 0.807929 23.077 0.837923 23.4323C0.94175 24.6828 1.13788 25.4696 1.55318 26.3302C2.34688 27.9776 3.86275 29.2143 5.64857 29.6757C6.26691 29.8349 6.94986 29.9226 7.82662 29.9641C8.19809 29.9803 11.9843 29.9918 15.7728 29.9918C19.5613 29.9918 23.3499 29.9872 23.7121 29.9688C24.7273 29.921 25.3168 29.8419 25.9686 29.6734C27.7659 29.2097 29.2541 27.9914 30.064 26.321C30.4712 25.4811 30.6777 24.6644 30.7711 23.4791C30.7915 23.2207 30.8 19.1006 30.8 14.9861C30.8 10.8709 30.7908 6.75842 30.7705 6.50001C30.6759 5.29562 30.4694 4.48577 30.049 3.62978C29.704 2.92907 29.321 2.40578 28.765 1.87073C27.7726 0.922904 26.559 0.346089 25.1128 0.137513C24.4121 0.036224 24.2725 0.0062296 20.687 0L15.8049 0Z" fill="white"/>
<path d="M15.798 3.92233C12.7902 3.92233 12.4128 3.93548 11.2315 3.98924C10.0525 4.04323 9.24769 4.22989 8.54351 4.50376C7.81511 4.78663 7.19723 5.16502 6.58165 5.78083C5.96562 6.39641 5.58722 7.01429 5.30342 7.74246C5.02886 8.44687 4.84198 9.25187 4.78891 10.4304C4.73607 11.6117 4.72223 11.9894 4.72223 14.9972C4.72223 18.0049 4.73561 18.3812 4.78913 19.5626C4.84336 20.7416 5.03002 21.5463 5.30366 22.2505C5.58676 22.9789 5.96514 23.5968 6.58095 24.2124C7.1963 24.8284 7.81418 25.2077 8.54212 25.4906C9.24676 25.7645 10.0518 25.9511 11.2305 26.0051C12.4119 26.0589 12.7891 26.072 15.7966 26.072C18.8046 26.072 19.1809 26.0589 20.3622 26.0051C21.5412 25.9511 22.3469 25.7645 23.0516 25.4906C23.7797 25.2077 24.3967 24.8284 25.012 24.2124C25.6281 23.5968 26.0065 22.9789 26.2903 22.2507C26.5625 21.5463 26.7494 20.7413 26.8048 19.5628C26.8578 18.3815 26.8717 18.0049 26.8717 14.9972C26.8717 11.9894 26.8578 11.612 26.8048 10.4306C26.7494 9.25164 26.5625 8.44687 26.2903 7.74269C26.0065 7.01429 25.6281 6.39641 25.012 5.78083C24.396 5.16479 23.78 4.7864 23.0509 4.50376C22.3448 4.22989 21.5396 4.04323 20.3606 3.98924C19.1793 3.93548 18.8032 3.92233 15.7945 3.92233H15.798ZM14.8045 5.91811C15.0994 5.91765 15.4284 5.91811 15.798 5.91811C18.755 5.91811 19.1054 5.92873 20.2731 5.98179C21.3529 6.03117 21.939 6.2116 22.3294 6.36318C22.8462 6.56391 23.2147 6.80387 23.6021 7.19149C23.9897 7.57911 24.2296 7.94827 24.4308 8.4651C24.5824 8.85502 24.7631 9.44107 24.8122 10.5209C24.8653 11.6883 24.8768 12.039 24.8768 14.9946C24.8768 17.9502 24.8653 18.3009 24.8122 19.4684C24.7629 20.5482 24.5824 21.1343 24.4308 21.5242C24.2301 22.041 23.9897 22.409 23.6021 22.7964C23.2145 23.184 22.8464 23.424 22.3294 23.6247C21.9395 23.777 21.3529 23.957 20.2731 24.0063C19.1057 24.0594 18.755 24.0709 15.798 24.0709C12.8408 24.0709 12.4903 24.0594 11.3228 24.0063C10.243 23.9565 9.657 23.7761 9.26638 23.6245C8.74955 23.4237 8.38039 23.1838 7.99277 22.7962C7.60515 22.4086 7.3652 22.0403 7.164 21.5233C7.01242 21.1333 6.83175 20.5473 6.78261 19.4675C6.72954 18.3 6.71893 17.9493 6.71893 14.9919C6.71893 12.0344 6.72954 11.6856 6.78261 10.5181C6.83199 9.4383 7.01242 8.85225 7.164 8.46187C7.36473 7.94504 7.60515 7.57588 7.99277 7.18826C8.38039 6.80064 8.74955 6.56068 9.26638 6.35949C9.65677 6.20721 10.243 6.02725 11.3228 5.97764C12.3445 5.93149 12.7404 5.91765 14.8045 5.91534V5.91811ZM21.7097 7.757C20.9759 7.757 20.3807 8.35158 20.3807 9.08552C20.3807 9.81923 20.9759 10.4145 21.7097 10.4145C22.4434 10.4145 23.0386 9.81923 23.0386 9.08552C23.0386 8.35181 22.4434 7.75654 21.7097 7.75654V7.757ZM15.798 9.30978C12.6571 9.30978 10.1106 11.8563 10.1106 14.9972C10.1106 18.138 12.6571 20.6834 15.798 20.6834C18.9389 20.6834 21.4845 18.138 21.4845 14.9972C21.4845 11.8563 18.9389 9.30978 15.798 9.30978ZM15.798 11.3056C17.8367 11.3056 19.4896 12.9583 19.4896 14.9972C19.4896 17.0359 17.8367 18.6888 15.798 18.6888C13.7591 18.6888 12.1064 17.0359 12.1064 14.9972C12.1064 12.9583 13.7591 11.3056 15.798 11.3056Z" fill="#00B3FF"/>
<defs>
<radialGradient id="paint0_radial_5_73" cx="0" cy="0" r="1" gradientUnits="userSpaceOnUse" gradientTransform="translate(8.76878 32.3018) rotate(-90) scale(29.7241 27.6533)">
<stop stop-color="#FFDD55"/>
<stop offset="0.1" stop-color="#FFDD55"/>
<stop offset="0.5" stop-color="#FF543E"/>
<stop offset="1" stop-color="#C837AB"/>
</radialGradient>
</defs>
</svg>
