<svg width="31" height="30" viewBox="0 0 31 30" fill="none" xmlns="http://www.w3.org/2000/svg">
<path fill-rule="evenodd" clip-rule="evenodd" d="M28.2272 0H2.66145C1.4386 0 0.400024 0.967143 0.400024 2.15857V27.84C0.400024 29.0329 1.08145 30 2.30431 30H27.87C29.0943 30 30.4 29.0329 30.4 27.84V2.15857C30.4 0.967143 29.4515 0 28.2272 0Z" fill="#00B3FF"/>
<path fill-rule="evenodd" clip-rule="evenodd" d="M28.2272 0H2.66145C1.4386 0 0.400024 0.967143 0.400024 2.15857V27.84C0.400024 29.0329 1.08145 30 2.30431 30H27.87C29.0943 30 30.4 29.0329 30.4 27.84V2.15857C30.4 0.967143 29.4514 0 28.2272 0ZM11.8286 11.4286H15.8672V13.4871H15.9115C16.5272 12.3771 18.3457 11.25 20.5943 11.25C24.91 11.25 26.1143 13.5414 26.1143 17.7857V25.7143H21.8286V18.5671C21.8286 16.6671 21.07 15 19.2957 15C17.1414 15 16.1143 16.4586 16.1143 18.8529V25.7143H11.8286V11.4286ZM4.68574 25.7143H8.97145V11.4286H4.68574V25.7143ZM9.50717 6.42857C9.50717 7.90857 8.3086 9.10714 6.8286 9.10714C5.3486 9.10714 4.15002 7.90857 4.15002 6.42857C4.15002 4.94857 5.3486 3.75 6.8286 3.75C8.3086 3.75 9.50717 4.94857 9.50717 6.42857Z" fill="white"/>
</svg>
